<svg width="20" height="20" viewBox="0 0 20 20" fill="none" xmlns="http://www.w3.org/2000/svg">
<path fill-rule="evenodd" clip-rule="evenodd" d="M17.375 8.71667C17.4579 9.01516 17.5 9.32353 17.5 9.63334V15.8333C17.5 16.2936 17.1269 16.6667 16.6667 16.6667H15.8333C15.3731 16.6667 15 16.2936 15 15.8333V15H5.00001V15.8333C5.00001 16.2936 4.62691 16.6667 4.16668 16.6667H3.33334C2.87311 16.6667 2.50001 16.2936 2.50001 15.8333V9.63334C2.49927 9.32074 2.54133 9.00952 2.62501 8.70834L3.82501 4.54167C4.02761 3.83315 4.67147 3.34178 5.40834 3.33334H14.575C15.3204 3.33547 15.9738 3.83229 16.175 4.55L17.375 8.71667ZM5.42501 4.79167C5.33242 4.79167 5.25094 4.85278 5.22501 4.94167L4.25834 8.33334H15.7417L14.7917 4.94167C14.7658 4.85278 14.6843 4.79167 14.5917 4.79167H5.42501ZM6.66668 11.6667C6.66668 12.1269 6.29358 12.5 5.83334 12.5H5.00001C4.53977 12.5 4.16668 12.1269 4.16668 11.6667V10.8333C4.16668 10.3731 4.53977 10 5.00001 10H5.83334C6.29358 10 6.66668 10.3731 6.66668 10.8333V11.6667ZM15 12.5C15.4602 12.5 15.8333 12.1269 15.8333 11.6667V10.8333C15.8333 10.3731 15.4602 10 15 10H14.1667C13.7064 10 13.3333 10.3731 13.3333 10.8333V11.6667C13.3333 12.1269 13.7064 12.5 14.1667 12.5H15Z" fill="#999999"/>
</svg>
