<svg width="48" height="48" viewBox="0 0 48 48" fill="none" xmlns="http://www.w3.org/2000/svg">
<path d="M44.322 4.56452C43.9366 4.25789 43.4946 4.03018 43.0212 3.89439C42.5478 3.7586 42.0523 3.71738 41.563 3.7731C41.0737 3.82881 40.6001 3.98037 40.1693 4.21911C39.7386 4.45785 39.3591 4.7791 39.0525 5.16452L24 24.1005L18.738 17.4795C18.119 16.7008 17.216 16.1998 16.2276 16.0869C15.2392 15.9739 14.2465 16.2583 13.4678 16.8773C12.689 17.4963 12.1881 18.3993 12.0751 19.3877C11.9622 20.376 12.2465 21.3688 12.8655 22.1475L21.063 32.46C21.774 33.3555 22.8555 33.8745 23.9985 33.8745C25.1415 33.8745 26.2215 33.3495 26.934 32.4585L44.925 9.83252C46.215 8.21252 45.945 5.85302 44.322 4.56452ZM36.75 36.75H11.25V11.25H30.384L33.9615 6.75002H9C7.755 6.75002 6.75 7.75502 6.75 9.00002V39C6.75 40.242 7.755 41.25 9 41.25H39C39.5967 41.25 40.169 41.013 40.591 40.591C41.0129 40.1691 41.25 39.5968 41.25 39V19.275L36.75 24.936V36.75Z" fill="#EFDF00"/>
</svg>
