<svg width="20" height="20" viewBox="0 0 20 20" fill="none" xmlns="http://www.w3.org/2000/svg">
<path fill-rule="evenodd" clip-rule="evenodd" d="M15.8333 3.33333C16.7538 3.33333 17.5 4.07952 17.5 5V15.8333C17.5 16.7538 16.7538 17.5 15.8333 17.5H4.16667C3.24619 17.5 2.5 16.7538 2.5 15.8333V5C2.5 4.07952 3.24619 3.33333 4.16667 3.33333H5V2.08333C5 1.85321 5.18655 1.66666 5.41667 1.66666H6.25C6.48012 1.66666 6.66667 1.85321 6.66667 2.08333V3.33333H13.3333V2.08333C13.3333 1.85321 13.5199 1.66666 13.75 1.66666H14.5833C14.8135 1.66666 15 1.85321 15 2.08333V3.33333H15.8333ZM4.16667 15.8333H15.8333V6.66666H4.16667V15.8333ZM9.58333 8.33333C9.35321 8.33333 9.16667 8.51988 9.16667 8.75V9.58333C9.16667 9.81345 9.35321 10 9.58333 10H13.75C13.9801 10 14.1667 9.81345 14.1667 9.58333V8.75C14.1667 8.51988 13.9801 8.33333 13.75 8.33333H9.58333ZM7.5 9.58333C7.5 9.81345 7.31345 10 7.08333 10H6.25C6.01988 10 5.83333 9.81345 5.83333 9.58333V8.75C5.83333 8.51988 6.01988 8.33333 6.25 8.33333H7.08333C7.31345 8.33333 7.5 8.51988 7.5 8.75V9.58333ZM10.4167 13.3333C10.6468 13.3333 10.8333 13.1468 10.8333 12.9167V12.0833C10.8333 11.8532 10.6468 11.6667 10.4167 11.6667H6.25C6.01988 11.6667 5.83333 11.8532 5.83333 12.0833V12.9167C5.83333 13.1468 6.01988 13.3333 6.25 13.3333H10.4167ZM12.9167 13.3333C12.6865 13.3333 12.5 13.1468 12.5 12.9167V12.0833C12.5 11.8532 12.6865 11.6667 12.9167 11.6667H13.75C13.9801 11.6667 14.1667 11.8532 14.1667 12.0833V12.9167C14.1667 13.1468 13.9801 13.3333 13.75 13.3333H12.9167Z" fill="#999999"/>
</svg>
