<svg width="36" height="36" viewBox="0 0 36 36" fill="none" xmlns="http://www.w3.org/2000/svg">
    <path d="M36 4V32C36 34.2092 34.2092 36 32 36H24.5C23.9478 36 23.5 35.5522 23.5 35V23H28.18C28.6552 23 29.065 22.6656 29.16 22.2L29.88 18.6C29.9098 18.4546 29.8732 18.3034 29.7806 18.1876C29.6878 18.0716 29.5484 18.003 29.4 18H23.5V11.5C23.5 11.2239 23.7238 11 24 11H29C29.5522 11 30 10.5523 30 10V7C30 6.44772 29.5522 6 29 6H24C20.6862 6 18 8.6863 18 12V18H15.54C14.9878 18 14.54 18.4478 14.54 19V22C14.54 22.5522 14.9878 23 15.54 23H18V35C18 35.5522 17.5522 36 17 36H4C1.79086 36 0 34.2092 0 32V4C0 1.79086 1.79086 0 4 0H32C34.2092 0 36 1.79086 36 4Z" fill="#EFDF00"/>
</svg>
