<svg width="20" height="20" viewBox="0 0 20 20" fill="none" xmlns="http://www.w3.org/2000/svg">
<g clip-path="url(#clip0_146_585)">
<path d="M16.6668 5V10H3.3335M10.0002 5V15M3.3335 5V15" stroke="#999999" stroke-width="2" stroke-linecap="round" stroke-linejoin="round"/>
<path d="M18.3334 3.33334C18.3334 3.77537 18.1578 4.19929 17.8453 4.51185C17.5327 4.82441 17.1088 5.00001 16.6667 5.00001C16.2247 5.00001 15.8008 4.82441 15.4882 4.51185C15.1757 4.19929 15.0001 3.77537 15.0001 3.33334C15.0001 2.89131 15.1757 2.46739 15.4882 2.15483C15.8008 1.84227 16.2247 1.66667 16.6667 1.66667C17.1088 1.66667 17.5327 1.84227 17.8453 2.15483C18.1578 2.46739 18.3334 2.89131 18.3334 3.33334ZM11.6667 3.33334C11.6667 3.77537 11.4912 4.19929 11.1786 4.51185C10.866 4.82441 10.4421 5.00001 10.0001 5.00001C9.55805 5.00001 9.13413 4.82441 8.82157 4.51185C8.50901 4.19929 8.33341 3.77537 8.33341 3.33334C8.33341 2.89131 8.50901 2.46739 8.82157 2.15483C9.13413 1.84227 9.55805 1.66667 10.0001 1.66667C10.4421 1.66667 10.866 1.84227 11.1786 2.15483C11.4912 2.46739 11.6667 2.89131 11.6667 3.33334ZM5.00008 3.33334C5.00008 3.77537 4.82449 4.19929 4.51193 4.51185C4.19937 4.82441 3.77544 5.00001 3.33341 5.00001C2.89139 5.00001 2.46746 4.82441 2.1549 4.51185C1.84234 4.19929 1.66675 3.77537 1.66675 3.33334C1.66675 2.89131 1.84234 2.46739 2.1549 2.15483C2.46746 1.84227 2.89139 1.66667 3.33341 1.66667C3.77544 1.66667 4.19937 1.84227 4.51193 2.15483C4.82449 2.46739 5.00008 2.89131 5.00008 3.33334ZM11.6667 16.6667C11.6667 17.1087 11.4912 17.5326 11.1786 17.8452C10.866 18.1577 10.4421 18.3333 10.0001 18.3333C9.55805 18.3333 9.13413 18.1577 8.82157 17.8452C8.50901 17.5326 8.33341 17.1087 8.33341 16.6667C8.33341 16.2246 8.50901 15.8007 8.82157 15.4882C9.13413 15.1756 9.55805 15 10.0001 15C10.4421 15 10.866 15.1756 11.1786 15.4882C11.4912 15.8007 11.6667 16.2246 11.6667 16.6667ZM5.00008 16.6667C5.00008 17.1087 4.82449 17.5326 4.51193 17.8452C4.19937 18.1577 3.77544 18.3333 3.33341 18.3333C2.89139 18.3333 2.46746 18.1577 2.1549 17.8452C1.84234 17.5326 1.66675 17.1087 1.66675 16.6667C1.66675 16.2246 1.84234 15.8007 2.1549 15.4882C2.46746 15.1756 2.89139 15 3.33341 15C3.77544 15 4.19937 15.1756 4.51193 15.4882C4.82449 15.8007 5.00008 16.2246 5.00008 16.6667ZM16.6667 18.3333C17.1088 18.3333 17.5327 18.1577 17.8453 17.8452C18.1578 17.5326 18.3334 17.1087 18.3334 16.6667C18.3334 16.2246 18.1578 15.8007 17.8453 15.4882C17.5327 15.1756 17.1088 15 16.6667 15C16.2247 15 15.8008 15.1756 15.4882 15.4882C15.1757 15.8007 15.0001 16.2246 15.0001 16.6667C15.0001 17.1087 15.1757 17.5326 15.4882 17.8452C15.8008 18.1577 16.2247 18.3333 16.6667 18.3333Z" stroke="#999999" stroke-width="2" stroke-linecap="round" stroke-linejoin="round"/>
</g>
<defs>
<clipPath id="clip0_146_585">
<rect width="20" height="20" fill="white"/>
</clipPath>
</defs>
</svg>
