<svg width="36" height="36" viewBox="0 0 36 36" fill="none" xmlns="http://www.w3.org/2000/svg">
    <path d="M28 35.9996C24.6926 35.9966 21.4366 35.1792 18.52 33.6196L17.62 33.1196C11.4015 29.7762 6.30338 24.678 2.96 18.4596L2.46 17.5596C0.859641 14.6264 0.0142612 11.341 1.24351e-06 7.99956V6.65956C-0.000838757 5.59348 0.423921 4.57116 1.18 3.81956L4.56 0.439558C4.88826 0.108758 5.35162 -0.0506816 5.81392 0.00807844C6.27622 0.0668384 6.68496 0.337159 6.92 0.739559L11.42 8.45956C11.8751 9.24534 11.7437 10.2391 11.1 10.8796L7.32 14.6596C7.00608 14.97 6.93294 15.4496 7.14 15.8396L7.84 17.1596C10.3541 21.8164 14.1786 25.634 18.84 28.1396L20.16 28.8596C20.55 29.0666 21.0296 28.9934 21.34 28.6796L25.12 24.8996C25.7604 24.256 26.7542 24.1246 27.54 24.5796L35.26 29.0796C35.6624 29.3146 35.9328 29.7234 35.9914 30.1856C36.0502 30.648 35.8908 31.1114 35.56 31.4396L32.18 34.8196C31.4284 35.5756 30.406 36.0004 29.34 35.9996H28Z" fill="#EFDF00"/>
</svg>
